<svg version="1.1" id="Layer_1" xmlns="http://www.w3.org/2000/svg" xmlns:xlink="http://www.w3.org/1999/xlink" x="0px" y="0px"
	 width="100%" viewBox="0 0 512 512" enable-background="new 0 0 512 512" xml:space="preserve">
<path fill="#419CD5" opacity="1.000000" stroke="none" 
	d="
M109.159698,344.558838 
	C109.159698,344.558838 109.329712,344.277740 109.342651,343.700195 
	C108.978210,337.090881 108.559319,331.061188 108.263367,325.025452 
	C108.212730,323.992798 108.769035,322.944550 108.900520,321.885559 
	C109.114967,320.158478 109.874290,318.117126 109.248299,316.729675 
	C105.227844,307.818604 104.084412,298.825928 107.458916,289.480652 
	C107.669098,288.898590 108.277069,288.178314 108.104362,287.781708 
	C105.104408,280.892731 109.099571,275.605377 111.810448,269.861969 
	C114.050377,265.116302 117.398888,264.433655 122.010262,265.459747 
	C121.309723,268.733643 120.786179,271.816681 119.969269,274.819946 
	C119.145210,277.849457 118.030022,280.799744 117.042389,283.784760 
	C117.368309,283.982117 117.694237,284.179504 118.020157,284.376862 
	C120.249878,282.364075 122.479591,280.351257 124.733162,278.316925 
	C122.841003,270.782074 127.626007,260.251160 140.439056,260.456390 
	C140.642197,264.859497 140.849274,269.348175 141.133102,275.500580 
	C143.228729,273.820892 144.769379,272.978943 145.742477,271.703827 
	C146.884537,270.207275 147.103714,267.683472 148.490677,266.767822 
	C150.941086,265.150208 153.972427,264.412598 156.760590,263.306610 
	C157.528656,265.736084 158.694885,268.125244 158.946228,270.607056 
	C159.170853,272.825348 158.121735,275.147430 158.135056,277.420776 
	C158.144730,279.068573 158.972076,280.711548 159.434814,282.356689 
	C163.482132,273.837708 166.210419,271.085663 171.000000,271.964508 
	C171.000000,273.372375 170.982132,274.854034 171.004379,276.335083 
	C171.034317,278.328827 170.286835,281.247314 171.301544,282.133881 
	C173.860428,284.369598 176.318359,286.259949 176.396576,290.023529 
	C176.401779,290.273895 178.187439,290.910889 178.735443,290.613464 
	C179.347595,290.281250 179.842880,289.044098 179.748581,288.279816 
	C179.638489,287.387756 178.930496,286.503784 178.315918,285.751953 
	C176.446396,283.464905 176.648087,281.547028 179.686462,281.083191 
	C184.663162,280.323425 190.122986,278.552246 194.650131,279.816925 
	C207.566605,283.425201 221.027939,285.951752 232.402740,293.845825 
	C232.470291,293.892700 232.840317,293.503723 233.550934,292.927643 
	C232.192932,291.504333 231.093201,289.744354 229.507278,288.806549 
	C225.229156,286.276703 220.737549,284.109070 216.345337,281.770111 
	C215.261826,281.193115 213.333969,280.520020 213.327545,279.875854 
	C213.287003,275.800934 210.255539,277.510010 208.388092,277.095459 
	C207.450516,276.887329 206.329803,277.244141 205.493881,276.880798 
	C200.438736,274.683655 195.416412,272.405579 190.443710,270.027893 
	C189.213074,269.439484 188.206604,268.382263 187.097107,267.540558 
	C187.327225,267.166107 187.557343,266.791656 187.787460,266.417206 
	C190.027878,266.958862 192.268280,267.500488 195.177185,268.203735 
	C193.152100,265.101227 191.773300,260.500916 189.540710,260.040497 
	C183.143951,258.721283 178.148972,255.518524 173.202454,251.745880 
	C169.644958,249.032669 166.152969,246.812531 161.001022,247.651962 
	C156.858292,248.326935 152.321533,247.596786 148.125183,246.708191 
	C140.521225,245.098053 133.430405,242.184311 128.367630,237.027252 
	C135.975677,232.743713 143.941788,229.439194 150.426239,224.274445 
	C156.865585,219.145645 161.814209,212.145233 167.326920,206.064468 
	C168.787613,208.649750 170.564499,211.794601 172.393555,215.350006 
	C169.447281,217.224747 166.448837,218.688934 163.450378,220.153137 
	C163.747559,220.799377 164.044754,221.445602 164.341934,222.091843 
	C168.514435,220.042923 172.686935,217.993988 177.167877,215.826965 
	C178.055328,215.761734 179.058365,215.649384 179.152557,215.891129 
	C183.786484,227.785629 193.833496,234.368881 203.447144,241.639359 
	C207.172012,244.456375 209.889603,249.158844 211.912811,253.535492 
	C214.578903,259.302765 217.388672,261.096436 222.995819,257.870850 
	C225.924133,256.186340 227.988846,256.586029 230.725861,257.974365 
	C259.486053,272.562592 289.907227,276.608246 321.557404,271.462830 
	C345.321533,267.599457 366.786987,258.221130 385.815918,242.723343 
	C386.132324,243.811127 386.395569,244.549576 386.560425,245.309387 
	C387.810272,251.069717 389.614288,252.191589 394.798035,249.771957 
	C397.619934,248.454758 400.375275,246.734222 402.710052,244.682785 
	C409.856293,238.403793 412.635376,230.049530 413.654236,220.617767 
	C415.181091,223.759354 416.499603,226.929642 416.837585,230.201233 
	C417.508270,236.694031 418.686523,238.075928 425.028351,239.201599 
	C435.016022,240.974411 443.294189,246.126617 450.651215,252.884125 
	C451.256989,253.440521 451.407806,254.492233 451.986481,255.804794 
	C446.426514,256.373657 441.386719,256.889313 436.565308,257.382629 
	C435.381226,261.377808 437.289368,262.236176 440.140320,262.850342 
	C447.522675,264.440674 453.486389,268.066071 457.553741,276.036285 
	C453.902679,275.458588 451.311890,275.073059 448.730347,274.633484 
	C445.940125,274.158447 443.174103,273.505310 440.369019,273.163544 
	C437.265991,272.785461 434.347412,272.955322 434.603119,277.376373 
	C443.796997,278.281616 448.861603,283.530823 449.317688,293.874268 
	C442.092834,290.947205 435.457886,288.259155 428.571716,285.469299 
	C427.840912,286.243469 426.738312,287.411469 425.570435,288.648621 
	C437.287537,293.585388 440.397217,299.657776 435.593140,307.820374 
	C427.289703,298.069519 409.692902,292.974091 399.157135,297.233032 
	C391.069794,300.502228 382.961975,303.720581 375.029694,306.894958 
	C376.295502,308.454102 377.807343,310.316345 378.863922,311.617767 
	C368.957489,312.279327 359.435272,312.915192 350.029205,313.543304 
	C355.814087,319.280457 361.489990,324.909454 367.260773,330.632629 
	C365.286987,334.824646 362.112579,336.883362 357.653748,336.309326 
	C353.726868,335.803802 352.341003,337.334595 351.231110,341.096619 
	C349.645477,346.471313 347.011810,351.561371 344.550232,356.639435 
	C343.706696,358.379639 342.034607,359.718201 340.276520,361.786896 
	C342.435547,365.669037 345.027832,370.085510 347.384766,374.624207 
	C351.132843,381.841797 353.675812,389.440521 351.935852,397.654236 
	C351.357239,400.385803 349.370941,402.819214 347.486511,406.425598 
	C345.871643,403.626526 345.170166,402.410645 344.031799,400.437500 
	C344.384796,403.862549 344.650909,406.444458 344.916992,409.026337 
	C344.841766,409.658203 344.766541,410.290039 344.562195,411.578735 
	C343.031311,416.521576 341.629608,420.807617 339.965698,425.201721 
	C339.605042,425.654633 339.506592,425.999481 339.400513,426.369141 
	C339.392883,426.393921 339.444550,426.399078 339.086304,426.391876 
	C337.825806,427.939484 336.923584,429.494293 335.919067,431.274292 
	C335.576538,431.738464 335.292114,431.899292 334.614563,432.025452 
	C333.074249,433.249481 331.882843,434.430054 330.691437,435.610626 
	C331.043121,435.978577 331.394806,436.346527 331.746521,436.714478 
	C332.724915,436.103363 333.703339,435.492218 334.912720,434.736816 
	C335.906097,436.159546 336.907715,437.594116 337.946899,439.030182 
	C337.984497,439.031677 337.945587,439.096069 337.980835,439.399017 
	C338.417419,440.107117 338.818756,440.512299 339.425232,440.933197 
	C339.630371,440.948914 340.007874,441.112701 340.229431,441.339966 
	C341.628357,441.464020 342.805725,441.360809 344.364380,441.218079 
	C345.480316,441.345398 346.215027,441.512238 347.080627,441.961609 
	C349.275574,442.951050 351.339630,443.657990 353.423157,444.408936 
	C353.442657,444.453003 353.536835,444.473297 353.496643,444.817474 
	C354.440125,445.603241 355.423828,446.044830 356.429565,446.524048 
	C356.451599,446.561646 356.536377,446.582062 356.492950,446.863190 
	C356.771484,447.232452 357.093475,447.320618 357.456421,447.451813 
	C357.497375,447.494873 357.594879,447.562866 357.531281,447.843475 
	C357.790405,448.211945 358.113159,448.299805 358.474854,448.438843 
	C358.513794,448.490021 358.598022,448.587219 358.538086,448.861877 
	C358.793060,449.239197 359.108002,449.341858 359.443359,449.488220 
	C359.463776,449.531891 359.547729,449.579254 359.498474,449.865173 
	C359.773163,450.280060 360.097137,450.408997 360.368103,450.584778 
	C360.315094,450.631653 360.455170,450.611603 360.433960,450.897858 
	C360.730835,451.339172 361.048920,451.494232 361.176025,451.734406 
	C360.985046,451.819519 361.354279,451.622498 361.347351,451.907501 
	C361.793457,452.477234 362.246521,452.761993 362.849854,453.203552 
	C363.000183,453.360352 363.106293,453.781677 363.102356,454.119141 
	C363.538757,454.868530 363.979095,455.280487 364.366364,455.734009 
	C364.313324,455.775574 364.313843,455.640778 364.338745,456.025085 
	C365.618683,458.242981 366.873688,460.076599 368.089600,461.956909 
	C368.050476,462.003571 368.094940,461.890228 368.059021,462.297180 
	C368.013916,463.790558 368.004700,464.876984 367.749329,466.049011 
	C367.330444,466.116119 367.157715,466.097626 366.720245,465.787659 
	C364.575592,465.381775 362.695618,465.267303 360.833862,465.077271 
	C360.852020,465.001648 360.845673,465.156403 360.869324,464.798248 
	C359.823090,463.032532 358.753204,461.624969 357.784851,460.154480 
	C357.886383,460.091583 357.718292,460.261292 357.764587,459.919220 
	C357.185394,459.067047 356.559967,458.556946 355.968445,458.027344 
	C356.002350,458.007904 355.949158,458.065552 355.939880,457.726074 
	C355.179443,456.672272 354.428223,455.957947 353.736694,455.205566 
	C353.796326,455.167572 353.744110,455.299042 353.707947,455.020691 
	C353.371735,454.544434 353.071686,454.346497 352.820221,454.137146 
	C352.868805,454.125702 352.844391,454.222473 352.777649,453.952942 
	C352.403534,453.501923 352.096222,453.320435 351.836731,453.127380 
	C351.884583,453.115814 351.865143,453.212311 351.783691,452.945587 
	C351.383392,452.515656 351.064514,452.352448 350.820770,452.174011 
	C350.895874,452.158813 350.776489,452.254913 350.791077,451.889679 
	C350.074921,451.187927 349.344238,450.851410 348.701172,450.472168 
	C348.788788,450.429413 348.594849,450.449707 348.577026,450.121033 
	C347.985474,449.578308 347.411713,449.364227 346.886841,449.111206 
	C346.935669,449.072296 346.893768,449.189972 346.784729,448.933563 
	C346.334259,448.603424 345.992859,448.529724 345.623108,448.415558 
	C345.594757,448.375122 345.575897,448.472076 345.593567,448.119171 
	C344.295959,446.178070 343.035675,444.166901 341.173676,447.405212 
	C341.225708,447.628052 341.472839,448.013275 341.412598,448.341431 
	C341.581970,449.747803 341.811554,450.825958 342.082275,452.260712 
	C343.115051,453.052521 344.106720,453.487762 345.061157,453.951569 
	C345.023926,453.980164 345.053131,453.890930 345.159546,454.139801 
	C345.580200,454.543823 345.894501,454.699005 346.147522,454.867920 
	C346.086243,454.881683 346.170197,454.788300 346.171387,455.145142 
	C346.887329,455.891937 347.602051,456.281921 348.327637,456.762817 
	C348.338470,456.853760 348.272644,456.682831 348.305054,456.967499 
	C348.655243,457.427704 348.973083,457.603241 349.236755,457.801697 
	C349.182587,457.824585 349.221436,457.713562 349.271759,457.993073 
	C349.640350,458.444397 349.958649,458.616211 350.228149,458.811279 
	C350.179382,458.834473 350.197998,458.728058 350.267090,459.012390 
	C350.657715,459.493591 350.979218,459.690460 351.543549,460.033325 
	C352.178436,460.811493 352.570496,461.443604 352.996429,462.377808 
	C353.442719,463.067383 353.855133,463.454865 354.195984,463.872681 
	C354.124420,463.903015 354.225311,463.784729 354.166382,464.156921 
	C354.786316,465.317596 355.465179,466.106049 356.090576,466.946533 
	C356.037140,466.998596 356.116882,466.872498 356.079346,467.278168 
	C355.914032,468.951782 355.786255,470.219696 355.669586,471.377686 
	C354.071167,471.469330 352.797485,471.542389 351.488922,471.557007 
	C351.454010,471.498596 351.390137,471.378418 351.531067,471.045380 
	C351.072418,470.170532 350.472778,469.628754 349.913666,469.059814 
	C349.954163,469.032715 349.927460,469.126465 349.859924,468.882843 
	C349.544647,468.419037 349.296936,468.198883 349.021576,467.982666 
	C348.993958,467.986633 349.033234,467.946930 348.995026,467.631226 
	C348.514526,466.921875 348.072266,466.528198 347.363678,465.953491 
	C345.510864,464.168060 344.003448,462.465698 342.258911,461.057068 
	C341.972870,460.826111 340.643127,461.887726 339.568237,462.548767 
	C339.539154,463.221680 339.737579,463.697845 340.081421,464.469421 
	C344.173706,470.183533 348.120605,475.602203 352.127045,481.415802 
	C351.921417,482.514648 351.656281,483.218567 351.033844,483.797607 
	C349.435669,483.845581 348.194824,484.018433 346.513062,484.151093 
	C342.895294,484.373871 339.718384,484.636841 336.171906,484.766174 
	C333.980377,484.716248 332.158417,484.799988 330.173248,484.753662 
	C329.719604,484.485474 329.465240,484.534241 328.829773,484.627899 
	C327.538177,484.533417 326.663757,484.580933 325.419006,484.477478 
	C323.715759,484.275635 322.382904,484.224762 320.700409,484.032349 
	C319.111877,483.872253 317.872986,483.853760 316.401855,483.582733 
	C315.568573,483.500305 314.967560,483.670380 314.023071,483.751312 
	C312.108612,484.156677 310.537628,484.651154 308.614410,485.112549 
	C307.631012,485.327484 306.999847,485.575470 306.037537,485.700439 
	C304.793121,485.764160 303.879822,485.950897 302.578705,486.092438 
	C301.167419,486.171112 300.143982,486.294983 298.737976,486.349487 
	C297.848785,486.363373 297.342102,486.446625 296.406372,486.422821 
	C292.996857,486.248718 290.016418,486.181702 286.747498,485.981812 
	C285.832550,485.856018 285.206055,485.863068 284.380463,485.659729 
	C283.805847,485.389435 283.430359,485.329498 282.687561,485.121155 
	C267.623413,481.667755 255.934219,474.457275 249.864319,459.648682 
	C249.628876,458.754395 249.379761,458.179108 249.165207,457.274048 
	C249.081512,456.297699 248.963257,455.651184 248.885193,454.579468 
	C248.884338,452.449371 248.843307,450.744507 248.802261,449.039642 
	C248.946548,448.093842 249.090836,447.148010 249.454010,445.583282 
	C250.098557,443.636047 250.524200,442.307739 250.949860,440.979431 
	C250.949844,440.979431 251.006500,440.964294 251.173645,440.748291 
	C251.514175,440.027802 251.687576,439.523376 251.860962,439.018921 
	C251.860962,439.018921 252.126938,438.754944 252.410339,438.345520 
	C255.865372,433.987274 259.037018,430.038422 262.208649,426.089569 
	C262.524597,425.985687 262.748596,425.781128 263.266113,425.113342 
	C264.526276,423.539520 265.938385,422.430481 266.191223,421.100983 
	C268.331268,409.847687 274.181183,400.835358 282.407349,392.589600 
	C280.090210,392.421600 278.056396,392.963745 276.034210,393.546051 
	C274.085632,394.107147 272.110504,395.320435 270.213013,395.200897 
	C248.394043,393.826141 230.105026,384.950104 215.710190,368.498993 
	C213.015533,365.419434 210.349258,364.440796 206.652267,365.366852 
	C201.165375,366.741272 195.619156,368.861328 190.688751,363.925201 
	C190.587051,363.823395 190.097626,364.108826 189.789078,364.213623 
	C190.083145,364.543732 190.377228,364.873840 190.671295,365.203949 
	C188.135895,367.540405 185.600510,369.876862 183.065125,372.213318 
	C181.671890,369.140411 180.278641,366.067474 178.692383,362.568817 
	C177.936783,363.188232 176.438766,364.568451 174.792130,365.739685 
	C167.924454,370.624390 161.474670,376.383514 154.006729,380.069672 
	C143.039612,385.483063 127.982483,381.216095 119.784126,372.107025 
	C114.071037,365.759277 112.052734,357.903168 110.028214,349.992371 
	C110.031387,349.534241 110.034569,349.076111 109.962021,347.941742 
	C109.644096,346.363281 109.401894,345.461060 109.159698,344.558838 
M403.437347,260.952759 
	C406.547028,262.121582 409.656708,263.290375 413.947296,264.903046 
	C409.077515,259.130280 403.944305,258.201447 396.712158,259.373474 
	C399.574158,260.051422 401.127258,260.419281 403.437347,260.952759 
z"/>
<path fill="#04080C" opacity="1.000000" stroke="none" 
	d="
M345.261719,408.878662 
	C344.650909,406.444458 344.384796,403.862549 344.031799,400.437500 
	C345.170166,402.410645 345.871643,403.626526 347.486511,406.425598 
	C349.370941,402.819214 351.357239,400.385803 351.935852,397.654236 
	C353.675812,389.440521 351.132843,381.841797 347.384766,374.624207 
	C345.027832,370.085510 342.435547,365.669037 340.276520,361.786896 
	C342.034607,359.718201 343.706696,358.379639 344.550232,356.639435 
	C347.011810,351.561371 349.645477,346.471313 351.231110,341.096619 
	C352.341003,337.334595 353.726868,335.803802 357.653748,336.309326 
	C362.112579,336.883362 365.286987,334.824646 367.260773,330.632629 
	C361.489990,324.909454 355.814087,319.280457 350.029205,313.543304 
	C359.435272,312.915192 368.957489,312.279327 378.863922,311.617767 
	C377.807343,310.316345 376.295502,308.454102 375.029694,306.894958 
	C382.961975,303.720581 391.069794,300.502228 399.157135,297.233032 
	C409.692902,292.974091 427.289703,298.069519 435.593140,307.820374 
	C440.397217,299.657776 437.287537,293.585388 425.570435,288.648621 
	C426.738312,287.411469 427.840912,286.243469 428.571716,285.469299 
	C435.457886,288.259155 442.092834,290.947205 449.317688,293.874268 
	C448.861603,283.530823 443.796997,278.281616 434.603119,277.376373 
	C434.347412,272.955322 437.265991,272.785461 440.369019,273.163544 
	C443.174103,273.505310 445.940125,274.158447 448.730347,274.633484 
	C451.311890,275.073059 453.902679,275.458588 457.553741,276.036285 
	C453.486389,268.066071 447.522675,264.440674 440.140320,262.850342 
	C437.289368,262.236176 435.381226,261.377808 436.565308,257.382629 
	C441.386719,256.889313 446.426514,256.373657 451.986481,255.804794 
	C451.407806,254.492233 451.256989,253.440521 450.651215,252.884125 
	C443.294189,246.126617 435.016022,240.974411 425.028351,239.201599 
	C418.686523,238.075928 417.508270,236.694031 416.837585,230.201233 
	C416.499603,226.929642 415.181091,223.759354 413.654236,220.617767 
	C412.635376,230.049530 409.856293,238.403793 402.710052,244.682785 
	C400.375275,246.734222 397.619934,248.454758 394.798035,249.771957 
	C389.614288,252.191589 387.810272,251.069717 386.560425,245.309387 
	C386.395569,244.549576 386.132324,243.811127 385.815918,242.723343 
	C366.786987,258.221130 345.321533,267.599457 321.557404,271.462830 
	C289.907227,276.608246 259.486053,272.562592 230.725861,257.974365 
	C227.988846,256.586029 225.924133,256.186340 222.995819,257.870850 
	C217.388672,261.096436 214.578903,259.302765 211.912811,253.535492 
	C209.889603,249.158844 207.172012,244.456375 203.447144,241.639359 
	C193.833496,234.368881 183.786484,227.785629 179.152557,215.891129 
	C179.058365,215.649384 178.055328,215.761734 176.832062,215.810074 
	C174.905655,215.587326 173.623520,215.263397 172.341370,214.939468 
	C170.564499,211.794601 168.787613,208.649750 167.326920,206.064468 
	C161.814209,212.145233 156.865585,219.145645 150.426239,224.274445 
	C143.941788,229.439194 135.975677,232.743713 128.367630,237.027252 
	C133.430405,242.184311 140.521225,245.098053 148.125183,246.708191 
	C152.321533,247.596786 156.858292,248.326935 161.001022,247.651962 
	C166.152969,246.812531 169.644958,249.032669 173.202454,251.745880 
	C178.148972,255.518524 183.143951,258.721283 189.540710,260.040497 
	C191.773300,260.500916 193.152100,265.101227 195.177185,268.203735 
	C192.268280,267.500488 190.027878,266.958862 187.787460,266.417206 
	C187.557343,266.791656 187.327225,267.166107 187.097107,267.540558 
	C188.206604,268.382263 189.213074,269.439484 190.443710,270.027893 
	C195.416412,272.405579 200.438736,274.683655 205.493881,276.880798 
	C206.329803,277.244141 207.450516,276.887329 208.388092,277.095459 
	C210.255539,277.510010 213.287003,275.800934 213.327545,279.875854 
	C213.333969,280.520020 215.261826,281.193115 216.345337,281.770111 
	C220.737549,284.109070 225.229156,286.276703 229.507278,288.806549 
	C231.093201,289.744354 232.192932,291.504333 233.550934,292.927643 
	C232.840317,293.503723 232.470291,293.892700 232.402740,293.845825 
	C221.027939,285.951752 207.566605,283.425201 194.650131,279.816925 
	C190.122986,278.552246 184.663162,280.323425 179.686462,281.083191 
	C176.648087,281.547028 176.446396,283.464905 178.315918,285.751953 
	C178.930496,286.503784 179.638489,287.387756 179.748581,288.279816 
	C179.842880,289.044098 179.347595,290.281250 178.735443,290.613464 
	C178.187439,290.910889 176.401779,290.273895 176.396576,290.023529 
	C176.318359,286.259949 173.860428,284.369598 171.301544,282.133881 
	C170.286835,281.247314 171.034317,278.328827 171.004379,276.335083 
	C170.982132,274.854034 171.000000,273.372375 171.000000,271.964508 
	C166.210419,271.085663 163.482132,273.837708 159.434814,282.356689 
	C158.972076,280.711548 158.144730,279.068573 158.135056,277.420776 
	C158.121735,275.147430 159.170853,272.825348 158.946228,270.607056 
	C158.694885,268.125244 157.528656,265.736084 156.760590,263.306610 
	C153.972427,264.412598 150.941086,265.150208 148.490677,266.767822 
	C147.103714,267.683472 146.884537,270.207275 145.742477,271.703827 
	C144.769379,272.978943 143.228729,273.820892 141.133102,275.500580 
	C140.849274,269.348175 140.642197,264.859497 140.439056,260.456390 
	C127.626007,260.251160 122.841003,270.782074 124.733162,278.316925 
	C122.479591,280.351257 120.249878,282.364075 118.020157,284.376862 
	C117.694237,284.179504 117.368309,283.982117 117.042389,283.784760 
	C118.030022,280.799744 119.145210,277.849457 119.969269,274.819946 
	C120.786179,271.816681 121.309723,268.733643 122.010262,265.459747 
	C117.398888,264.433655 114.050377,265.116302 111.810448,269.861969 
	C109.099571,275.605377 105.104408,280.892731 108.104362,287.781708 
	C108.277069,288.178314 107.669098,288.898590 107.458916,289.480652 
	C104.084412,298.825928 105.227844,307.818604 109.248299,316.729675 
	C109.874290,318.117126 109.114967,320.158478 108.900520,321.885559 
	C108.769035,322.944550 108.212730,323.992798 108.263367,325.025452 
	C108.559319,331.061188 108.978210,337.090881 109.266739,343.554504 
	C104.201363,342.272949 105.731621,337.493591 105.255074,334.209229 
	C104.579620,329.553925 105.703049,324.659546 105.780914,319.862823 
	C105.814735,317.779755 105.555229,315.516724 104.748283,313.625916 
	C101.459541,305.919891 100.822235,298.271118 104.209541,290.433350 
	C104.631363,289.457275 104.666695,288.190582 104.515182,287.109833 
	C103.251656,278.097198 105.489578,270.142487 112.506668,264.261261 
	C114.790352,262.347229 118.619423,260.999603 121.475838,261.381470 
	C124.777031,261.822754 127.194946,261.375000 129.790710,259.668793 
	C131.018463,258.861786 132.489548,258.379700 133.903061,257.908295 
	C140.819199,255.601791 142.944046,256.720245 144.605164,263.386993 
	C148.546432,262.259033 152.423187,260.621796 156.441010,260.124634 
	C162.321762,259.396973 162.530975,264.444916 163.454514,268.364471 
	C173.839203,268.293945 173.839203,268.293945 175.552841,278.526062 
	C180.191452,277.090210 184.805878,275.661835 189.801437,274.115479 
	C187.581207,272.317230 185.541107,270.748962 183.606628,269.059723 
	C182.743362,268.305908 181.470322,267.328613 181.441528,266.419220 
	C181.156235,257.414429 171.421432,257.284912 167.533432,251.627182 
	C166.822632,250.592834 163.755600,250.907684 161.805511,251.038010 
	C146.927643,252.032364 134.006256,247.650909 122.898537,237.605164 
	C121.537392,236.374191 118.916054,235.960205 116.934914,236.081955 
	C100.451645,237.094955 86.382561,231.208023 74.897453,220.025116 
	C65.850548,211.216263 60.075882,200.121140 58.053844,187.347092 
	C54.708591,166.213745 61.221218,148.292297 76.160309,133.482468 
	C86.658806,123.074814 100.065224,118.939095 114.562027,118.062263 
	C115.896782,117.981529 117.281258,118.722748 118.642639,119.082298 
	C118.136230,120.368187 117.855377,121.811760 117.085304,122.913345 
	C113.252953,128.395584 114.681946,134.628616 120.881889,137.301590 
	C123.435684,138.402603 124.676353,139.642532 125.428825,142.417419 
	C126.842949,147.632233 131.547897,149.608521 138.393173,149.019684 
	C140.102036,148.872681 142.265289,149.256714 143.591034,150.242294 
	C148.895676,154.185806 154.297211,153.569733 158.556931,148.263458 
	C151.854416,133.996338 158.221268,123.804794 169.251907,115.352821 
	C164.562775,111.533951 160.355438,108.376099 156.480438,104.852745 
	C154.085068,102.674744 154.653824,100.160034 158.013245,100.149246 
	C166.081924,100.123322 172.146362,95.556030 178.397934,91.645226 
	C184.285233,87.962318 189.715897,83.527534 195.213470,79.251266 
	C198.880875,76.398582 202.650482,74.335602 207.521011,74.970177 
	C210.664459,75.379723 212.438370,74.613838 213.204239,70.689713 
	C217.290039,49.755165 236.300003,34.559113 257.621094,35.065407 
	C268.614319,35.326454 278.313629,39.321720 286.410065,46.915295 
	C287.260010,47.712479 288.087006,48.535252 288.960297,49.305737 
	C289.191132,49.509415 289.554932,49.562351 289.806671,49.663914 
	C294.388916,46.685596 298.714081,43.283699 303.527008,40.843903 
	C330.596436,27.121597 362.486450,42.973835 367.847046,72.855736 
	C368.699219,77.605965 370.319214,78.434952 374.846832,77.378784 
	C379.964203,76.185036 384.851562,77.544708 389.384338,80.744896 
	C398.050598,86.863342 406.935394,92.686172 415.913361,98.339622 
	C418.211853,99.786980 421.213776,100.096756 423.860931,101.019714 
	C425.174408,101.477676 427.535004,102.251266 427.491577,102.691635 
	C427.327911,104.350708 426.795319,106.419563 425.622253,107.438789 
	C423.272339,109.480530 420.395966,110.911263 417.766144,112.638733 
	C416.849518,113.240852 416.019043,113.974098 416.484894,113.811638 
	C420.982605,119.035645 425.565369,124.189323 429.957214,129.500885 
	C435.907288,136.697006 439.938599,144.751480 436.783539,154.209290 
	C435.491821,158.081284 432.544922,161.679504 429.581116,164.628494 
	C427.144745,167.052658 426.819275,168.838181 427.875763,171.965012 
	C431.019104,181.268143 433.192444,190.705200 430.671173,200.671371 
	C428.688019,208.510483 424.549835,214.547699 418.115234,218.175583 
	C418.831116,223.469131 419.319916,228.442673 420.305725,233.315689 
	C420.523193,234.390701 422.468597,235.824631 423.674561,235.880585 
	C434.609344,236.387939 443.324493,241.687820 451.062439,248.693863 
	C457.637939,254.647369 456.844604,257.613678 448.203491,260.955750 
	C450.837280,263.156921 453.325256,265.223175 455.795013,267.310974 
	C456.302124,267.739685 456.925873,268.166290 457.180328,268.735016 
	C458.423737,271.513885 459.560242,274.340546 460.734558,277.150330 
	C457.989197,277.762207 455.263977,278.508881 452.489166,278.923889 
	C451.272247,279.105896 449.954132,278.611206 449.124359,278.488983 
	C450.420959,283.350739 452.245209,288.114380 452.845398,293.027557 
	C453.442108,297.912170 452.290375,298.331421 447.859497,296.469055 
	C445.981079,295.679504 443.933075,295.293274 440.996887,294.444824 
	C440.996887,297.920563 441.177490,300.377502 440.944611,302.794617 
	C440.724670,305.077240 440.471130,307.505493 439.521179,309.537201 
	C437.663086,313.511322 434.096436,313.723907 432.052429,309.881622 
	C428.061249,302.378967 421.177979,300.559052 413.682617,300.060242 
	C407.390961,299.641602 401.244751,299.897980 395.232086,302.880951 
	C391.038818,304.961304 386.073059,305.484680 381.456696,306.702362 
	C381.372742,307.038971 381.196777,307.367340 381.229065,307.673828 
	C381.522797,310.463409 381.852814,313.249176 382.172241,316.036041 
	C379.498657,315.880096 376.826721,315.636505 374.151215,315.588440 
	C369.936707,315.512634 365.719818,315.568268 361.503967,315.568268 
	C361.150574,316.208008 360.797211,316.847778 360.443848,317.487518 
	C362.738434,320.259125 364.794464,323.281281 367.381927,325.745331 
	C371.563354,329.727234 371.221283,335.085938 366.032501,337.883484 
	C364.035553,338.960175 361.623535,339.920410 359.438293,339.844849 
	C355.968933,339.724823 355.082367,341.526398 353.973724,344.243378 
	C351.229523,350.968536 348.057251,357.519043 344.713776,364.897125 
	C350.234802,370.391693 353.852295,378.125549 355.325775,386.775238 
	C355.932373,390.336090 356.288086,394.120758 355.756866,397.653107 
	C354.899475,403.354431 352.319366,408.099731 345.261719,408.878662 
M404.139954,236.475311 
	C405.512695,232.245529 407.289368,228.093735 408.126099,223.760452 
	C408.758514,220.485336 407.720123,216.897186 408.289825,213.597626 
	C408.844849,210.383148 410.498383,207.358353 411.680420,204.244659 
	C412.999542,207.700897 414.318695,211.157135 415.637848,214.613358 
	C416.358246,214.553452 417.078613,214.493546 417.799011,214.433655 
	C434.125153,199.721451 428.074768,182.634766 422.153778,166.918320 
	C426.082367,162.359268 430.754761,158.880417 432.706116,154.253891 
	C436.374756,145.555786 432.769531,137.477509 426.449890,131.273026 
	C419.609894,124.557686 411.931000,118.696854 405.900360,113.556374 
	C410.335266,111.619568 416.238281,109.041626 423.089020,106.049789 
	C419.751373,104.515358 417.696594,103.843811 415.934723,102.715126 
	C406.470459,96.652176 396.852234,90.789452 387.752014,84.214211 
	C382.711151,80.572006 377.613708,80.591591 372.190216,81.605049 
	C371.030884,81.821678 369.642426,83.466843 369.265381,84.725296 
	C368.056549,88.760010 367.761780,93.112946 366.243378,97.003159 
	C357.765656,118.723297 331.944458,134.005692 306.785400,123.408073 
	C300.674316,120.833931 295.289337,116.536118 289.131622,112.761887 
	C274.984924,126.638229 258.044189,131.991730 238.706329,123.505646 
	C219.435013,115.048752 211.707870,98.721191 210.714005,78.420204 
	C205.167389,77.512016 200.544601,79.010674 196.322037,82.240799 
	C185.306580,90.667297 175.130646,100.440979 159.442429,104.435120 
	C166.522522,108.278740 172.318008,111.424973 178.149399,114.590706 
	C161.920868,123.696014 155.669662,134.396973 161.077301,143.864822 
	C162.587524,143.231308 164.110550,142.592422 166.201096,141.715469 
	C164.037308,146.546005 162.088943,150.572372 160.411926,154.708771 
	C157.215271,162.593369 156.886826,170.453827 160.449219,178.438797 
	C165.371887,189.472794 170.007919,200.634644 174.532349,211.194748 
	C180.144760,210.890503 176.012253,201.832031 183.682159,203.547913 
	C181.478821,210.317368 183.131516,216.373245 187.313293,221.453079 
	C190.661148,225.519897 194.400146,229.506744 198.679230,232.513367 
	C206.985199,238.349396 215.031052,244.121765 217.159409,255.661224 
	C222.456711,252.975922 227.148300,250.597656 231.839874,248.219406 
	C232.124832,248.687149 232.409790,249.154892 232.694748,249.622650 
	C232.106201,250.686905 231.517654,251.751160 230.750610,253.138199 
	C232.829330,254.178574 234.576141,255.099274 236.361008,255.939072 
	C257.740997,265.998718 280.309082,270.239471 303.819458,268.998016 
	C332.124756,267.503357 357.961151,258.896393 380.588074,241.360489 
	C383.335114,239.231537 386.882935,238.135803 390.517181,236.334396 
	C390.735138,240.170807 390.898773,243.051559 391.085358,246.336349 
	C396.882751,244.616470 400.799530,241.536850 404.139954,236.475311 
M160.103973,207.503967 
	C164.262558,202.312332 164.481171,197.262894 161.405457,191.059433 
	C156.037079,180.231827 150.274200,169.166489 155.029755,156.984436 
	C150.659653,155.992416 146.720963,155.092819 142.779404,154.205902 
	C140.789307,153.758102 138.779922,152.909271 136.803604,152.974915 
	C129.914276,153.203735 124.968880,150.343933 122.048088,144.064926 
	C121.574829,143.047516 121.164230,141.578796 120.332848,141.215607 
	C112.273613,137.694992 110.079063,131.495514 112.301605,122.655701 
	C107.771080,123.171242 103.631767,123.038849 99.871719,124.168671 
	C76.608810,131.158768 61.058422,152.203461 60.905293,176.437149 
	C60.746956,201.495483 75.812134,223.000168 98.591194,230.231644 
	C121.826538,237.607971 144.835373,229.288300 160.103973,207.503967 
M275.553925,43.971771 
	C266.793976,38.360481 257.099762,37.872047 247.366959,39.716190 
	C228.376007,43.314552 212.172989,64.680321 215.972443,86.926781 
	C218.239700,100.201996 224.274872,111.088989 235.811584,117.623619 
	C254.688583,128.315918 276.178406,124.011948 289.418518,105.490341 
	C304.169128,84.855721 297.933044,57.711956 275.553925,43.971771 
M301.368408,85.248764 
	C299.012146,92.037819 296.906464,98.929878 294.178650,105.566216 
	C293.056885,108.295250 293.032837,109.850746 295.318176,111.812088 
	C307.814789,122.537048 322.033264,124.926476 337.315613,119.853622 
	C360.779114,112.065086 371.785004,84.452927 360.626373,62.410019 
	C351.901978,45.175812 333.368347,36.222424 314.266113,40.374489 
	C306.963440,41.961800 300.122467,44.937622 294.964264,50.668812 
	C294.052032,51.682404 293.137726,54.053394 293.655823,54.788139 
	C299.946625,63.709072 301.389496,73.786133 301.368408,85.248764 
z"/>
<path fill="#04080C" opacity="1.000000" stroke="none" 
	d="
M339.795776,462.351929 
	C340.643127,461.887726 341.972870,460.826111 342.258911,461.057068 
	C344.003448,462.465698 345.510864,464.168060 347.459747,466.232910 
	C348.225800,467.111237 348.629517,467.529083 349.033234,467.946930 
	C349.033234,467.946930 348.993958,467.986633 349.055573,468.246185 
	C349.387268,468.712646 349.657379,468.919556 349.927460,469.126465 
	C349.927460,469.126465 349.954163,469.032715 349.980499,469.335724 
	C350.467957,470.218628 350.929047,470.798523 351.390137,471.378418 
	C351.390137,471.378418 351.454010,471.498596 351.601288,471.885101 
	C353.793182,476.841858 356.908813,474.530121 360.476044,473.604614 
	C358.873138,471.129120 357.495026,469.000824 356.116882,466.872498 
	C356.116882,466.872498 356.037140,466.998596 356.045837,466.633972 
	C355.444763,465.441162 354.835052,464.612946 354.225311,463.784729 
	C354.225311,463.784729 354.124420,463.903015 354.135712,463.589813 
	C353.752167,462.876343 353.357330,462.476044 352.962524,462.075745 
	C352.570496,461.443604 352.178436,460.811493 351.446533,459.766235 
	C350.803802,459.144714 350.500885,458.936401 350.197998,458.728058 
	C350.197998,458.728058 350.179382,458.834473 350.141663,458.556274 
	C349.809753,458.089874 349.515594,457.901733 349.221436,457.713562 
	C349.221436,457.713562 349.182587,457.824585 349.155182,457.547394 
	C348.842743,457.074402 348.557709,456.878601 348.272644,456.682831 
	C348.272644,456.682831 348.338470,456.853760 348.210419,456.489624 
	C347.444977,455.679779 346.807587,455.234039 346.170197,454.788300 
	C346.170197,454.788300 346.086243,454.881683 346.039948,454.620850 
	C345.680145,454.203674 345.366638,454.047302 345.053131,453.890930 
	C345.053131,453.890930 345.023926,453.980164 344.910522,453.673645 
	C343.878448,452.879486 342.959778,452.391815 342.041138,451.904144 
	C341.811554,450.825958 341.581970,449.747803 341.722046,448.332581 
	C342.503540,447.955139 342.915436,447.914734 343.620850,447.897705 
	C344.468231,448.104767 345.022064,448.288422 345.575897,448.472076 
	C345.575897,448.472076 345.594757,448.375122 345.765717,448.625854 
	C346.255707,448.981049 346.574738,449.085510 346.893768,449.189972 
	C346.893768,449.189972 346.935669,449.072296 347.028503,449.356140 
	C347.612518,449.909912 348.103699,450.179810 348.594849,450.449707 
	C348.594849,450.449707 348.788788,450.429413 348.845093,450.716431 
	C349.526398,451.420593 350.151428,451.837769 350.776489,452.254913 
	C350.776489,452.254913 350.895874,452.158813 350.917847,452.428040 
	C351.248260,452.868988 351.556702,453.040649 351.865143,453.212311 
	C351.865143,453.212311 351.884583,453.115814 351.924835,453.381500 
	C352.258179,453.838928 352.551300,454.030701 352.844391,454.222473 
	C352.844391,454.222473 352.868805,454.125702 352.889343,454.397675 
	C353.187988,454.879425 353.466064,455.089233 353.744110,455.299042 
	C353.744110,455.299042 353.796326,455.167572 353.840271,455.495392 
	C354.572571,456.570648 355.260864,457.318085 355.949158,458.065552 
	C355.949158,458.065552 356.002350,458.007904 356.036682,458.314789 
	C356.620117,459.168213 357.169220,459.714752 357.718292,460.261292 
	C357.718292,460.261292 357.886383,460.091583 357.867737,460.476196 
	C358.847961,462.292664 359.846802,463.724548 360.845673,465.156403 
	C360.845673,465.156403 360.852020,465.001648 360.921692,465.419861 
	C362.545685,466.185638 364.100006,466.533173 366.011963,466.917847 
	C367.228973,466.705750 368.088318,466.456573 369.204376,466.003723 
	C369.005676,464.496765 368.550323,463.193512 368.094940,461.890228 
	C368.094940,461.890228 368.050476,462.003571 368.040588,461.613586 
	C366.791718,459.362671 365.552795,457.501709 364.313843,455.640778 
	C364.313843,455.640778 364.313324,455.775574 364.306183,455.435547 
	C363.901459,454.657562 363.503876,454.219635 363.106293,453.781677 
	C363.106293,453.781677 363.000183,453.360352 362.789093,452.949463 
	C362.170105,452.233246 361.762177,451.927856 361.354279,451.622498 
	C361.354279,451.622498 360.985046,451.819519 361.100769,451.502838 
	C361.041748,450.889832 360.787994,450.698334 360.455170,450.611603 
	C360.455170,450.611603 360.315094,450.631653 360.301758,450.363586 
	C360.121338,449.808868 359.874451,449.636780 359.547729,449.579254 
	C359.547729,449.579254 359.463776,449.531891 359.357544,449.301727 
	C359.088745,448.835632 358.871002,448.674194 358.598022,448.587219 
	C358.598022,448.587219 358.513794,448.490021 358.398499,448.245972 
	C358.117798,447.755249 357.888336,447.608887 357.594879,447.562866 
	C357.594879,447.562866 357.497375,447.494873 357.359375,447.267761 
	C357.045898,446.808838 356.817566,446.655945 356.536377,446.582062 
	C356.536377,446.582062 356.451599,446.561646 356.268616,446.271484 
	C355.236023,445.478668 354.386444,444.975983 353.536835,444.473297 
	C353.536835,444.473297 353.442657,444.453003 353.246277,444.153564 
	C351.016479,443.129120 348.983093,442.404114 346.949707,441.679077 
	C346.215027,441.512238 345.480316,441.345398 343.975403,441.120850 
	C342.139404,441.079651 341.073639,441.096191 340.007874,441.112701 
	C340.007874,441.112701 339.630371,440.948914 339.331757,440.662170 
	C338.670624,439.948975 338.308105,439.522522 337.945587,439.096069 
	C337.945587,439.096069 337.984497,439.031677 337.947815,438.586548 
	C343.690002,434.830383 348.904877,437.669830 354.191315,439.649445 
	C355.377075,440.093475 356.526978,440.633270 357.693390,441.128998 
	C354.256989,434.384979 348.592987,432.643372 341.922668,432.794983 
	C339.610291,432.847565 337.283600,432.271118 334.963470,431.981995 
	C335.292114,431.899292 335.576538,431.738464 336.215881,431.126404 
	C337.558167,429.301910 338.501343,427.850494 339.444519,426.399078 
	C339.444550,426.399078 339.392883,426.393921 339.630066,426.234924 
	C339.987457,425.748474 340.107635,425.421051 340.227844,425.093628 
	C341.629608,420.807617 343.031311,416.521576 344.647278,411.887695 
	C344.418915,417.141357 343.976379,422.742889 343.494080,428.847443 
	C354.806213,428.853973 361.431732,437.390228 368.131256,446.037384 
	C370.000244,448.449707 372.908508,450.036346 375.219177,452.134766 
	C376.576477,453.367432 378.765869,454.974335 378.636414,456.208954 
	C378.492493,457.581207 376.152618,458.739532 374.734344,459.950653 
	C374.373901,460.258392 373.882568,460.412903 373.484070,460.620758 
	C374.094513,469.129608 374.094513,469.129608 363.938385,470.388794 
	C363.775391,476.698914 363.775391,476.698914 355.570709,478.696472 
	C357.376495,485.844879 357.413147,486.441986 349.570679,486.923340 
	C339.533020,487.539429 329.416901,486.775757 319.357819,487.182037 
	C313.119659,487.434021 306.932800,488.821014 300.708527,489.580475 
	C284.422485,491.567596 257.166779,483.539307 249.112213,464.041473 
	C248.028671,461.418549 247.974380,458.370392 247.926193,455.260376 
	C248.408905,455.001556 248.845016,455.004669 248.845001,455.004669 
	C248.963257,455.651184 249.081512,456.297699 249.138123,457.603943 
	C249.334549,458.831696 249.592621,459.399689 249.850677,459.967712 
	C255.934219,474.457275 267.623413,481.667755 282.897095,485.311005 
	C283.842468,485.722900 284.211029,485.796509 284.579559,485.870117 
	C285.206055,485.863068 285.832550,485.856018 287.039398,486.241150 
	C290.691650,486.598846 293.763550,486.564392 296.835449,486.529907 
	C297.342102,486.446625 297.848785,486.363373 298.987488,486.522888 
	C300.735199,486.556305 301.850891,486.346954 302.966553,486.137634 
	C303.879822,485.950897 304.793121,485.764160 306.394379,485.735931 
	C307.710449,485.644836 308.338562,485.395233 308.966644,485.145630 
	C310.537628,484.651154 312.108612,484.156677 314.590698,483.768311 
	C315.879272,483.861359 316.256653,483.848297 316.634064,483.835205 
	C317.872986,483.853760 319.111877,483.872253 320.926392,484.254700 
	C322.931122,484.621887 324.360229,484.625153 325.789368,484.628448 
	C326.663757,484.580933 327.538177,484.533417 329.004517,484.685211 
	C329.596497,484.884552 329.966522,484.923065 329.966522,484.923065 
	C329.966522,484.923065 330.336487,484.883698 330.336487,484.883728 
	C332.158417,484.799988 333.980377,484.716248 336.659241,484.796539 
	C340.662079,484.704132 343.808044,484.447723 346.953979,484.191284 
	C348.194824,484.018433 349.435669,483.845581 351.363708,483.708191 
	C352.056427,482.836029 352.061951,481.928467 352.067505,481.020874 
	C348.120605,475.602203 344.173706,470.183533 340.062500,464.012634 
	C339.863983,462.957550 339.829865,462.654724 339.795776,462.351929 
z"/>
<path fill="#040A12" opacity="1.000000" stroke="none" 
	d="
M109.741898,350.277466 
	C112.052734,357.903168 114.071037,365.759277 119.784126,372.107025 
	C127.982483,381.216095 143.039612,385.483063 154.006729,380.069672 
	C161.474670,376.383514 167.924454,370.624390 174.792130,365.739685 
	C176.438766,364.568451 177.936783,363.188232 178.692383,362.568817 
	C180.278641,366.067474 181.671890,369.140411 183.065125,372.213318 
	C185.600510,369.876862 188.135895,367.540405 190.671295,365.203949 
	C190.377228,364.873840 190.083145,364.543732 189.789078,364.213623 
	C190.097626,364.108826 190.587051,363.823395 190.688751,363.925201 
	C195.619156,368.861328 201.165375,366.741272 206.652267,365.366852 
	C210.349258,364.440796 213.015533,365.419434 215.710190,368.498993 
	C230.105026,384.950104 248.394043,393.826141 270.213013,395.200897 
	C272.110504,395.320435 274.085632,394.107147 276.034210,393.546051 
	C278.056396,392.963745 280.090210,392.421600 282.407349,392.589600 
	C274.181183,400.835358 268.331268,409.847687 266.191223,421.100983 
	C265.938385,422.430481 264.526276,423.539520 263.331543,424.889526 
	C262.359833,417.284393 265.955627,410.833038 269.405945,404.375519 
	C271.726715,400.032043 271.075287,398.914948 266.093872,397.979401 
	C260.257385,396.883240 254.442062,395.580627 248.715851,394.009369 
	C234.475494,390.101715 223.162796,381.566223 213.353531,370.869171 
	C211.042435,368.348907 208.848511,367.640228 205.438889,368.581909 
	C201.709442,369.611908 197.701599,369.602722 193.838196,370.196747 
	C192.571472,370.391510 191.229935,370.835754 190.173050,371.541168 
	C182.628708,376.576538 182.034760,376.556335 176.128738,370.131470 
	C171.991974,373.030121 168.127777,376.634369 163.568680,378.718384 
	C157.019730,381.711975 150.023834,385.279419 143.110107,385.523346 
	C134.811371,385.816132 126.422569,382.849091 119.953125,376.585388 
	C112.589088,369.455566 108.043037,361.218567 109.741898,350.277466 
z"/>
<path fill="#040A12" opacity="1.000000" stroke="none" 
	d="
M261.850464,426.096100 
	C259.037018,430.038422 255.865372,433.987274 252.426483,438.158844 
	C252.239655,431.985077 257.084900,429.210236 261.850464,426.096100 
z"/>
<path fill="#040A12" opacity="1.000000" stroke="none" 
	d="
M248.885193,454.579468 
	C248.845016,455.004669 248.408905,455.001556 248.190582,454.995911 
	C248.084747,453.196655 248.197250,451.403046 248.556000,449.324524 
	C248.843307,450.744507 248.884338,452.449371 248.885193,454.579468 
z"/>
<path fill="#040A12" opacity="1.000000" stroke="none" 
	d="
M250.577179,441.077271 
	C250.524200,442.307739 250.098557,443.636047 249.425278,445.223389 
	C249.519928,444.046631 249.862213,442.610840 250.577179,441.077271 
z"/>
<path fill="#040A12" opacity="1.000000" stroke="none" 
	d="
M109.101715,344.925720 
	C109.401894,345.461060 109.644096,346.363281 109.840218,347.617188 
	C109.544006,347.076752 109.293869,346.184692 109.101715,344.925720 
z"/>
<path fill="#040A12" opacity="1.000000" stroke="none" 
	d="
M251.637543,439.186279 
	C251.687576,439.523376 251.514175,440.027802 251.151108,440.729492 
	C251.112320,440.402405 251.263229,439.878021 251.637543,439.186279 
z"/>
<path fill="#478FBC" opacity="1.000000" stroke="none" 
	d="
M334.614563,432.025452 
	C337.283600,432.271118 339.610291,432.847565 341.922668,432.794983 
	C348.592987,432.643372 354.256989,434.384979 357.693390,441.128998 
	C356.526978,440.633270 355.377075,440.093475 354.191315,439.649445 
	C348.904877,437.669830 343.690002,434.830383 337.910217,438.585052 
	C336.907715,437.594116 335.906097,436.159546 334.912720,434.736816 
	C333.703339,435.492218 332.724915,436.103363 331.746521,436.714478 
	C331.394806,436.346527 331.043121,435.978577 330.691437,435.610626 
	C331.882843,434.430054 333.074249,433.249481 334.614563,432.025452 
z"/>
<path fill="#0A2132" opacity="1.000000" stroke="none" 
	d="
M172.393555,215.350006 
	C173.623520,215.263397 174.905655,215.587326 176.523621,215.928162 
	C172.686935,217.993988 168.514435,220.042923 164.341934,222.091843 
	C164.044754,221.445602 163.747559,220.799377 163.450378,220.153137 
	C166.448837,218.688934 169.447281,217.224747 172.393555,215.350006 
z"/>
<path fill="#0D2C42" opacity="1.000000" stroke="none" 
	d="
M403.058838,260.869965 
	C401.127258,260.419281 399.574158,260.051422 396.712158,259.373474 
	C403.944305,258.201447 409.077515,259.130280 413.947296,264.903046 
	C409.656708,263.290375 406.547028,262.121582 403.058838,260.869965 
z"/>
<path fill="#478FBC" opacity="1.000000" stroke="none" 
	d="
M356.079346,467.278168 
	C357.495026,469.000824 358.873138,471.129120 360.476044,473.604614 
	C356.908813,474.530121 353.793182,476.841858 351.636200,471.943512 
	C352.797485,471.542389 354.071167,471.469330 355.669586,471.377686 
	C355.786255,470.219696 355.914032,468.951782 356.079346,467.278168 
M357.579834,472.515656 
	C357.579834,472.515656 357.477325,472.574890 357.579834,472.515656 
z"/>
<path fill="#478FBC" opacity="1.000000" stroke="none" 
	d="
M364.338745,456.025085 
	C365.552795,457.501709 366.791718,459.362671 368.079681,461.566895 
	C366.873688,460.076599 365.618683,458.242981 364.338745,456.025085 
z"/>
<path fill="#478FBC" opacity="1.000000" stroke="none" 
	d="
M347.080627,441.961609 
	C348.983093,442.404114 351.016479,443.129120 353.226746,444.109497 
	C351.339630,443.657990 349.275574,442.951050 347.080627,441.961609 
z"/>
<path fill="#478FBC" opacity="1.000000" stroke="none" 
	d="
M365.654358,466.880737 
	C364.100006,466.533173 362.545685,466.185638 360.903503,465.495483 
	C362.695618,465.267303 364.575592,465.381775 366.500977,465.927063 
	C366.249054,466.532166 365.951721,466.706451 365.654358,466.880737 
z"/>
<path fill="#040A12" opacity="1.000000" stroke="none" 
	d="
M346.513062,484.151123 
	C343.808044,484.447723 340.662079,484.704132 337.028809,484.930176 
	C339.718384,484.636841 342.895294,484.373871 346.513062,484.151123 
z"/>
<path fill="#040A12" opacity="1.000000" stroke="none" 
	d="
M296.406372,486.422852 
	C293.763550,486.564392 290.691650,486.598846 287.327881,486.373993 
	C290.016418,486.181702 292.996857,486.248718 296.406372,486.422852 
z"/>
<path fill="#478FBC" opacity="1.000000" stroke="none" 
	d="
M339.086304,426.391876 
	C338.501343,427.850494 337.558167,429.301910 336.318176,430.901184 
	C336.923584,429.494293 337.825806,427.939484 339.086304,426.391876 
z"/>
<path fill="#478FBC" opacity="1.000000" stroke="none" 
	d="
M345.593567,448.119171 
	C345.022064,448.288422 344.468231,448.104767 343.411987,447.668884 
	C342.313568,447.338531 341.717621,447.260437 341.121643,447.182343 
	C343.035675,444.166901 344.295959,446.178070 345.593567,448.119171 
z"/>
<path fill="#478FBC" opacity="1.000000" stroke="none" 
	d="
M360.869324,464.798248 
	C359.846802,463.724548 358.847961,462.292664 357.766235,460.539093 
	C358.753204,461.624969 359.823090,463.032532 360.869324,464.798248 
z"/>
<path fill="#478FBC" opacity="1.000000" stroke="none" 
	d="
M368.059021,462.297180 
	C368.550323,463.193512 369.005676,464.496765 368.962524,465.957703 
	C368.464020,466.115326 367.995483,465.963409 367.995483,465.963409 
	C368.004700,464.876984 368.013916,463.790558 368.059021,462.297180 
z"/>
<path fill="#040A12" opacity="1.000000" stroke="none" 
	d="
M325.419006,484.477478 
	C324.360229,484.625153 322.931122,484.621887 321.276001,484.396240 
	C322.382904,484.224762 323.715759,484.275635 325.419006,484.477478 
z"/>
<path fill="#478FBC" opacity="1.000000" stroke="none" 
	d="
M354.166382,464.156921 
	C354.835052,464.612946 355.444763,465.441162 356.099274,466.581909 
	C355.465179,466.106049 354.786316,465.317596 354.166382,464.156921 
z"/>
<path fill="#478FBC" opacity="1.000000" stroke="none" 
	d="
M342.082275,452.260712 
	C342.959778,452.391815 343.878448,452.879486 344.947754,453.645050 
	C344.106720,453.487762 343.115051,453.052521 342.082275,452.260712 
z"/>
<path fill="#040A12" opacity="1.000000" stroke="none" 
	d="
M302.578705,486.092407 
	C301.850891,486.346954 300.735199,486.556305 299.370056,486.592285 
	C300.143982,486.294983 301.167419,486.171112 302.578705,486.092407 
z"/>
<path fill="#478FBC" opacity="1.000000" stroke="none" 
	d="
M351.531067,471.045380 
	C350.929047,470.798523 350.467957,470.218628 349.940002,469.362854 
	C350.472778,469.628754 351.072418,470.170532 351.531067,471.045380 
z"/>
<path fill="#478FBC" opacity="1.000000" stroke="none" 
	d="
M350.791077,451.889679 
	C350.151428,451.837769 349.526398,451.420593 348.757446,450.759155 
	C349.344238,450.851410 350.074921,451.187927 350.791077,451.889679 
z"/>
<path fill="#478FBC" opacity="1.000000" stroke="none" 
	d="
M340.229431,441.339966 
	C341.073639,441.096191 342.139404,441.079651 343.594147,441.160400 
	C342.805725,441.360809 341.628357,441.464020 340.229431,441.339966 
z"/>
<path fill="#478FBC" opacity="1.000000" stroke="none" 
	d="
M353.496643,444.817474 
	C354.386444,444.975983 355.236023,445.478668 356.246582,446.233887 
	C355.423828,446.044830 354.440125,445.603241 353.496643,444.817474 
z"/>
<path fill="#478FBC" opacity="1.000000" stroke="none" 
	d="
M355.939880,457.726074 
	C355.260864,457.318085 354.572571,456.570648 353.780640,455.533386 
	C354.428223,455.957947 355.179443,456.672272 355.939880,457.726074 
z"/>
<path fill="#478FBC" opacity="1.000000" stroke="none" 
	d="
M346.171387,455.145142 
	C346.807587,455.234039 347.444977,455.679779 348.199585,456.398682 
	C347.602051,456.281921 346.887329,455.891937 346.171387,455.145142 
z"/>
<path fill="#478FBC" opacity="1.000000" stroke="none" 
	d="
M357.764587,459.919220 
	C357.169220,459.714752 356.620117,459.168213 356.002808,458.334229 
	C356.559967,458.556946 357.185394,459.067047 357.764587,459.919220 
z"/>
<path fill="#040A12" opacity="1.000000" stroke="none" 
	d="
M352.127045,481.415802 
	C352.061951,481.928467 352.056427,482.836029 351.721008,483.833069 
	C351.656281,483.218567 351.921417,482.514648 352.127045,481.415802 
z"/>
<path fill="#040A12" opacity="1.000000" stroke="none" 
	d="
M367.749329,466.049011 
	C367.995483,465.963409 368.464020,466.115326 368.705872,466.161377 
	C368.088318,466.456573 367.228973,466.705750 366.011963,466.917847 
	C365.951721,466.706451 366.249054,466.532166 366.765686,466.218506 
	C367.157715,466.097626 367.330444,466.116119 367.749329,466.049011 
z"/>
<path fill="#478FBC" opacity="1.000000" stroke="none" 
	d="
M361.347351,451.907501 
	C361.762177,451.927856 362.170105,452.233246 362.638794,452.792664 
	C362.246521,452.761993 361.793457,452.477234 361.347351,451.907501 
z"/>
<path fill="#478FBC" opacity="1.000000" stroke="none" 
	d="
M348.995026,467.631226 
	C348.629517,467.529083 348.225800,467.111237 347.726044,466.413971 
	C348.072266,466.528198 348.514526,466.921875 348.995026,467.631226 
z"/>
<path fill="#478FBC" opacity="1.000000" stroke="none" 
	d="
M337.980835,439.399017 
	C338.308105,439.522522 338.670624,439.948975 339.126617,440.646423 
	C338.818756,440.512299 338.417419,440.107117 337.980835,439.399017 
z"/>
<path fill="#478FBC" opacity="1.000000" stroke="none" 
	d="
M348.577026,450.121033 
	C348.103699,450.179810 347.612518,449.909912 346.979675,449.395081 
	C347.411713,449.364227 347.985474,449.578308 348.577026,450.121033 
z"/>
<path fill="#478FBC" opacity="1.000000" stroke="none" 
	d="
M352.996429,462.377808 
	C353.357330,462.476044 353.752167,462.876343 354.207275,463.559448 
	C353.855133,463.454865 353.442719,463.067383 352.996429,462.377808 
z"/>
<path fill="#040A12" opacity="1.000000" stroke="none" 
	d="
M341.173676,447.405212 
	C341.717621,447.260437 342.313568,447.338531 343.118408,447.645508 
	C342.915436,447.914734 342.503540,447.955139 341.782257,448.004395 
	C341.472839,448.013275 341.225708,447.628052 341.173676,447.405212 
z"/>
<path fill="#040A12" opacity="1.000000" stroke="none" 
	d="
M249.864319,459.648682 
	C249.592621,459.399689 249.334549,458.831696 249.103577,457.933777 
	C249.379761,458.179108 249.628876,458.754395 249.864319,459.648682 
z"/>
<path fill="#040A12" opacity="1.000000" stroke="none" 
	d="
M308.614410,485.112549 
	C308.338562,485.395233 307.710449,485.644836 306.725525,485.858948 
	C306.999847,485.575470 307.631012,485.327484 308.614410,485.112549 
z"/>
<path fill="#478FBC" opacity="1.000000" stroke="none" 
	d="
M363.102356,454.119141 
	C363.503876,454.219635 363.901459,454.657562 364.359222,455.393982 
	C363.979095,455.280487 363.538757,454.868530 363.102356,454.119141 
z"/>
<path fill="#040A12" opacity="1.000000" stroke="none" 
	d="
M330.173248,484.753632 
	C330.336487,484.883698 329.966522,484.923065 329.966522,484.923065 
	C329.966522,484.923065 329.596497,484.884552 329.421722,484.827240 
	C329.465240,484.534241 329.719604,484.485474 330.173248,484.753632 
z"/>
<path fill="#478FBC" opacity="1.000000" stroke="none" 
	d="
M339.965698,425.201721 
	C340.107635,425.421051 339.987457,425.748474 339.637695,426.210114 
	C339.506592,425.999481 339.605042,425.654633 339.965698,425.201721 
z"/>
<path fill="#478FBC" opacity="1.000000" stroke="none" 
	d="
M346.784729,448.933563 
	C346.574738,449.085510 346.255707,448.981049 345.794067,448.666260 
	C345.992859,448.529724 346.334259,448.603424 346.784729,448.933563 
z"/>
<path fill="#040A12" opacity="1.000000" stroke="none" 
	d="
M316.401855,483.582703 
	C316.256653,483.848297 315.879272,483.861359 314.934204,483.857422 
	C314.967560,483.670380 315.568573,483.500305 316.401855,483.582703 
z"/>
<path fill="#040A12" opacity="1.000000" stroke="none" 
	d="
M284.380463,485.659729 
	C284.211029,485.796509 283.842468,485.722900 283.264404,485.459442 
	C283.430359,485.329498 283.805847,485.389435 284.380463,485.659729 
z"/>
<path fill="#478FBC" opacity="1.000000" stroke="none" 
	d="
M357.531281,447.843475 
	C357.888336,447.608887 358.117798,447.755249 358.359558,448.194794 
	C358.113159,448.299805 357.790405,448.211945 357.531281,447.843475 
z"/>
<path fill="#478FBC" opacity="1.000000" stroke="none" 
	d="
M358.538086,448.861877 
	C358.871002,448.674194 359.088745,448.835632 359.337097,449.258057 
	C359.108002,449.341858 358.793060,449.239197 358.538086,448.861877 
z"/>
<path fill="#478FBC" opacity="1.000000" stroke="none" 
	d="
M349.859924,468.882843 
	C349.657379,468.919556 349.387268,468.712646 349.083191,468.242218 
	C349.296936,468.198883 349.544647,468.419037 349.859924,468.882843 
z"/>
<path fill="#478FBC" opacity="1.000000" stroke="none" 
	d="
M359.498474,449.865173 
	C359.874451,449.636780 360.121338,449.808868 360.354736,450.316711 
	C360.097137,450.408997 359.773163,450.280060 359.498474,449.865173 
z"/>
<path fill="#478FBC" opacity="1.000000" stroke="none" 
	d="
M360.433960,450.897858 
	C360.787994,450.698334 361.041748,450.889832 361.291748,451.417725 
	C361.048920,451.494232 360.730835,451.339172 360.433960,450.897858 
z"/>
<path fill="#040A12" opacity="1.000000" stroke="none" 
	d="
M339.568237,462.548737 
	C339.829865,462.654724 339.863983,462.957550 339.917053,463.717194 
	C339.737579,463.697845 339.539154,463.221680 339.568237,462.548737 
z"/>
<path fill="#478FBC" opacity="1.000000" stroke="none" 
	d="
M351.783691,452.945587 
	C351.556702,453.040649 351.248260,452.868988 350.842773,452.443268 
	C351.064514,452.352448 351.383392,452.515656 351.783691,452.945587 
z"/>
<path fill="#478FBC" opacity="1.000000" stroke="none" 
	d="
M350.267090,459.012390 
	C350.500885,458.936401 350.803802,459.144714 351.203705,459.620178 
	C350.979218,459.690460 350.657715,459.493591 350.267090,459.012390 
z"/>
<path fill="#478FBC" opacity="1.000000" stroke="none" 
	d="
M356.492950,446.863190 
	C356.817566,446.655945 357.045898,446.808838 357.318390,447.224731 
	C357.093475,447.320618 356.771484,447.232452 356.492950,446.863190 
z"/>
<path fill="#478FBC" opacity="1.000000" stroke="none" 
	d="
M349.271759,457.993073 
	C349.515594,457.901733 349.809753,458.089874 350.190430,458.533051 
	C349.958649,458.616211 349.640350,458.444397 349.271759,457.993073 
z"/>
<path fill="#478FBC" opacity="1.000000" stroke="none" 
	d="
M348.305054,456.967499 
	C348.557709,456.878601 348.842743,457.074402 349.209351,457.524475 
	C348.973083,457.603241 348.655243,457.427704 348.305054,456.967499 
z"/>
<path fill="#478FBC" opacity="1.000000" stroke="none" 
	d="
M352.777649,453.952942 
	C352.551300,454.030701 352.258179,453.838928 351.876984,453.393066 
	C352.096222,453.320435 352.403534,453.501923 352.777649,453.952942 
z"/>
<path fill="#478FBC" opacity="1.000000" stroke="none" 
	d="
M345.159546,454.139801 
	C345.366638,454.047302 345.680145,454.203674 346.101196,454.607117 
	C345.894501,454.699005 345.580200,454.543823 345.159546,454.139801 
z"/>
<path fill="#478FBC" opacity="1.000000" stroke="none" 
	d="
M353.707947,455.020691 
	C353.466064,455.089233 353.187988,454.879425 352.840759,454.409119 
	C353.071686,454.346497 353.371735,454.544434 353.707947,455.020691 
z"/>
<path fill="#419CD5" opacity="1.000000" stroke="none" 
	d="
M403.922119,236.773529 
	C400.799530,241.536850 396.882751,244.616470 391.085358,246.336349 
	C390.898773,243.051559 390.735138,240.170807 390.517181,236.334396 
	C386.882935,238.135803 383.335114,239.231537 380.588074,241.360489 
	C357.961151,258.896393 332.124756,267.503357 303.819458,268.998016 
	C280.309082,270.239471 257.740997,265.998718 236.361008,255.939072 
	C234.576141,255.099274 232.829330,254.178574 230.750610,253.138199 
	C231.517654,251.751160 232.106201,250.686905 232.694748,249.622650 
	C232.409790,249.154892 232.124832,248.687149 231.839874,248.219406 
	C227.148300,250.597656 222.456711,252.975922 217.159409,255.661224 
	C215.031052,244.121765 206.985199,238.349396 198.679230,232.513367 
	C194.400146,229.506744 190.661148,225.519897 187.313293,221.453079 
	C183.131516,216.373245 181.478821,210.317368 183.682159,203.547913 
	C176.012253,201.832031 180.144760,210.890503 174.532349,211.194748 
	C170.007919,200.634644 165.371887,189.472794 160.449219,178.438797 
	C156.886826,170.453827 157.215271,162.593369 160.411926,154.708771 
	C162.088943,150.572372 164.037308,146.546005 166.201096,141.715469 
	C164.110550,142.592422 162.587524,143.231308 161.077301,143.864822 
	C155.669662,134.396973 161.920868,123.696014 178.149399,114.590706 
	C172.318008,111.424973 166.522522,108.278740 159.442429,104.435120 
	C175.130646,100.440979 185.306580,90.667297 196.322037,82.240799 
	C200.544601,79.010674 205.167389,77.512016 210.714005,78.420204 
	C211.707870,98.721191 219.435013,115.048752 238.706329,123.505646 
	C258.044189,131.991730 274.984924,126.638229 289.131622,112.761887 
	C295.289337,116.536118 300.674316,120.833931 306.785400,123.408073 
	C331.944458,134.005692 357.765656,118.723297 366.243378,97.003159 
	C367.761780,93.112946 368.056549,88.760010 369.265381,84.725296 
	C369.642426,83.466843 371.030884,81.821678 372.190216,81.605049 
	C377.613708,80.591591 382.711151,80.572006 387.752014,84.214211 
	C396.852234,90.789452 406.470459,96.652176 415.934723,102.715126 
	C417.696594,103.843811 419.751373,104.515358 423.089020,106.049789 
	C416.238281,109.041626 410.335266,111.619568 405.900360,113.556374 
	C411.931000,118.696854 419.609894,124.557686 426.449890,131.273026 
	C432.769531,137.477509 436.374756,145.555786 432.706116,154.253891 
	C430.754761,158.880417 426.082367,162.359268 422.153778,166.918320 
	C428.074768,182.634766 434.125153,199.721451 417.799011,214.433655 
	C417.078613,214.493546 416.358246,214.553452 415.637848,214.613358 
	C414.318695,211.157135 412.999542,207.700897 411.674988,204.247467 
	C410.498383,207.358353 408.844849,210.383148 408.289825,213.597626 
	C407.720123,216.897186 408.758514,220.485336 408.126099,223.760452 
	C407.289368,228.093735 405.512695,232.245529 403.922119,236.773529 
M242.059067,176.002411 
	C245.457367,175.128052 248.461899,175.352829 250.867386,178.434769 
	C251.746536,179.561111 253.163742,180.425980 254.510971,180.993759 
	C256.916412,182.007523 257.275665,183.460373 257.155151,186.037857 
	C256.916473,191.141937 256.589355,196.501511 257.826599,201.366928 
	C261.741608,216.762466 276.256042,227.992081 292.579681,229.105850 
	C310.855682,230.352814 326.954498,221.423752 333.651489,206.601227 
	C337.298798,198.528488 337.460358,190.284500 335.327393,181.970108 
	C337.509796,180.782364 339.580719,180.160263 340.937500,178.816879 
	C344.258240,175.528900 348.028992,175.908005 352.283325,175.818161 
	C358.651978,175.683716 365.232727,174.770676 371.278931,172.815018 
	C379.630341,170.113678 384.960236,163.783920 387.336060,155.064774 
	C385.439362,155.698441 383.485474,156.496811 382.537140,157.950974 
	C374.850189,169.738144 363.320679,172.667572 350.377289,171.762558 
	C346.260895,171.474747 343.059021,171.563446 339.512024,174.305359 
	C336.370850,176.733521 332.116455,178.184586 328.136414,178.978256 
	C315.861847,181.425980 304.807007,177.691788 295.007751,171.435501 
	C288.416992,173.933380 282.291290,176.499756 276.004730,178.579880 
	C266.721222,181.651672 258.316193,180.216599 251.176819,173.028137 
	C250.228989,172.073776 248.436600,171.669907 246.990112,171.548126 
	C240.082321,170.966522 233.013809,171.286484 226.278793,169.921982 
	C218.323944,168.310333 211.341187,164.441360 207.412109,156.545883 
	C206.632416,154.979126 204.731781,153.970169 203.348068,152.703995 
	C203.062729,159.865067 206.683350,164.539749 211.838211,168.138733 
	C220.633804,174.279556 230.575256,176.462067 242.059067,176.002411 
z"/>
<path fill="#E3BA4E" opacity="1.000000" stroke="none" 
	d="
M159.913635,207.815552 
	C144.835373,229.288300 121.826538,237.607971 98.591194,230.231644 
	C75.812134,223.000168 60.746956,201.495483 60.905293,176.437149 
	C61.058422,152.203461 76.608810,131.158768 99.871719,124.168671 
	C103.631767,123.038849 107.771080,123.171242 112.301605,122.655701 
	C110.079063,131.495514 112.273613,137.694992 120.332848,141.215607 
	C121.164230,141.578796 121.574829,143.047516 122.048088,144.064926 
	C124.968880,150.343933 129.914276,153.203735 136.803604,152.974915 
	C138.779922,152.909271 140.789307,153.758102 142.779404,154.205902 
	C146.720963,155.092819 150.659653,155.992416 155.029755,156.984436 
	C150.274200,169.166489 156.037079,180.231827 161.405457,191.059433 
	C164.481171,197.262894 164.262558,202.312332 159.913635,207.815552 
M113.821251,206.715469 
	C108.025536,201.959961 102.177551,202.184158 98.111649,207.317749 
	C94.406319,211.996063 95.135185,218.805038 99.738106,222.511475 
	C103.600906,225.621979 108.780914,225.604279 112.616745,222.467514 
	C117.158051,218.753754 117.768829,213.371567 113.821251,206.715469 
M84.392570,152.679688 
	C87.097755,158.682846 91.138496,161.340729 96.150543,160.413712 
	C101.796043,159.369537 105.577400,154.123260 104.858978,148.331558 
	C104.162125,142.713699 98.736076,138.446365 93.176178,139.143570 
	C87.318306,139.878143 83.771904,144.915710 84.392570,152.679688 
M108.175385,187.382935 
	C113.498962,190.345154 117.913048,190.235016 121.411766,186.820221 
	C124.797691,183.515503 126.010445,179.519714 124.180321,174.999359 
	C122.475372,170.788193 119.317619,168.217667 114.673576,168.157028 
	C110.312889,168.100067 106.907112,170.160339 105.105934,174.151810 
	C102.976311,178.871155 103.785721,183.230209 108.175385,187.382935 
M141.499634,185.734650 
	C135.341599,188.993118 132.948105,193.548843 134.569717,198.924942 
	C136.124969,204.081024 140.928345,207.342499 145.925980,206.635788 
	C151.577545,205.836594 155.519730,200.732803 155.008331,194.877182 
	C154.464722,188.652649 149.393265,184.926743 141.499634,185.734650 
M88.958809,194.275574 
	C93.675179,186.605560 90.540833,178.048187 82.592026,176.893021 
	C77.740791,176.188004 73.211052,178.712067 71.321617,183.173096 
	C69.402924,187.703217 70.878220,193.010941 74.906921,196.072021 
	C78.968987,199.158463 83.459290,198.750961 88.958809,194.275574 
z"/>
<path fill="#FCFCFC" opacity="1.000000" stroke="none" 
	d="
M275.925262,44.024490 
	C297.933044,57.711956 304.169128,84.855721 289.418518,105.490341 
	C276.178406,124.011948 254.688583,128.315918 235.811584,117.623619 
	C224.274872,111.088989 218.239700,100.201996 215.972443,86.926781 
	C212.172989,64.680321 228.376007,43.314552 247.366959,39.716190 
	C257.099762,37.872047 266.793976,38.360481 275.925262,44.024490 
M252.392380,88.130234 
	C251.182373,100.644112 260.334564,110.255974 271.028381,107.702209 
	C278.881073,105.826942 284.229980,98.468185 283.701141,90.267616 
	C283.163818,81.935020 277.532104,75.671143 269.635345,74.622917 
	C261.834808,73.587463 255.504288,78.292641 252.392380,88.130234 
z"/>
<path fill="#FBFBFB" opacity="1.000000" stroke="none" 
	d="
M301.316711,84.777466 
	C301.389496,73.786133 299.946625,63.709072 293.655823,54.788139 
	C293.137726,54.053394 294.052032,51.682404 294.964264,50.668812 
	C300.122467,44.937622 306.963440,41.961800 314.266113,40.374489 
	C333.368347,36.222424 351.901978,45.175812 360.626373,62.410019 
	C371.785004,84.452927 360.779114,112.065086 337.315613,119.853622 
	C322.033264,124.926476 307.814789,122.537048 295.318176,111.812088 
	C293.032837,109.850746 293.056885,108.295250 294.178650,105.566216 
	C296.906464,98.929878 299.012146,92.037819 301.316711,84.777466 
M312.528992,64.045639 
	C311.735382,65.108116 310.775146,66.084694 310.175781,67.247307 
	C306.847839,73.702446 306.944702,80.128578 311.225739,86.061272 
	C315.028351,91.330948 320.300079,93.730225 326.880554,92.341301 
	C333.222809,91.002655 338.195251,85.456100 339.151215,78.833534 
	C340.218933,71.436455 337.259094,64.693588 331.418365,61.217335 
	C325.509460,57.700497 319.378448,58.469559 312.528992,64.045639 
z"/>
<path fill="#419CD5" opacity="1.000000" stroke="none" 
	d="
M357.528564,472.545288 
	C357.477325,472.574890 357.579834,472.515656 357.528564,472.545288 
z"/>
<path fill="#03060B" opacity="1.000000" stroke="none" 
	d="
M241.615311,176.054840 
	C230.575256,176.462067 220.633804,174.279556 211.838211,168.138733 
	C206.683350,164.539749 203.062729,159.865067 203.348068,152.703995 
	C204.731781,153.970169 206.632416,154.979126 207.412109,156.545883 
	C211.341187,164.441360 218.323944,168.310333 226.278793,169.921982 
	C233.013809,171.286484 240.082321,170.966522 246.990112,171.548126 
	C248.436600,171.669907 250.228989,172.073776 251.176819,173.028137 
	C258.316193,180.216599 266.721222,181.651672 276.004730,178.579880 
	C282.291290,176.499756 288.416992,173.933380 295.007751,171.435501 
	C304.807007,177.691788 315.861847,181.425980 328.136414,178.978256 
	C332.116455,178.184586 336.370850,176.733521 339.512024,174.305359 
	C343.059021,171.563446 346.260895,171.474747 350.377289,171.762558 
	C363.320679,172.667572 374.850189,169.738144 382.537140,157.950974 
	C383.485474,156.496811 385.439362,155.698441 387.336060,155.064774 
	C384.960236,163.783920 379.630341,170.113678 371.278931,172.815018 
	C365.232727,174.770676 358.651978,175.683716 352.283325,175.818161 
	C348.028992,175.908005 344.258240,175.528900 340.937500,178.816879 
	C339.580719,180.160263 337.509796,180.782364 335.327393,181.970108 
	C337.460358,190.284500 337.298798,198.528488 333.651489,206.601227 
	C326.954498,221.423752 310.855682,230.352814 292.579681,229.105850 
	C276.256042,227.992081 261.741608,216.762466 257.826599,201.366928 
	C256.589355,196.501511 256.916473,191.141937 257.155151,186.037857 
	C257.275665,183.460373 256.916412,182.007523 254.510971,180.993759 
	C253.163742,180.425980 251.746536,179.561111 250.867386,178.434769 
	C248.461899,175.352829 245.457367,175.128052 241.615311,176.054840 
z"/>
<path fill="#140F09" opacity="1.000000" stroke="none" 
	d="
M114.082108,206.985535 
	C117.768829,213.371567 117.158051,218.753754 112.616745,222.467514 
	C108.780914,225.604279 103.600906,225.621979 99.738106,222.511475 
	C95.135185,218.805038 94.406319,211.996063 98.111649,207.317749 
	C102.177551,202.184158 108.025536,201.959961 114.082108,206.985535 
M102.072945,218.584183 
	C106.656044,221.157379 110.910736,220.381638 111.603973,216.282425 
	C111.995377,213.967941 110.950508,210.610092 109.300911,209.024017 
	C108.144028,207.911636 104.360916,208.191101 102.656219,209.274246 
	C99.377792,211.357346 99.457306,214.759323 102.072945,218.584183 
z"/>
<path fill="#130E08" opacity="1.000000" stroke="none" 
	d="
M84.290955,152.294403 
	C83.771904,144.915710 87.318306,139.878143 93.176178,139.143570 
	C98.736076,138.446365 104.162125,142.713699 104.858978,148.331558 
	C105.577400,154.123260 101.796043,159.369537 96.150543,160.413712 
	C91.138496,161.340729 87.097755,158.682846 84.290955,152.294403 
M90.711983,144.860641 
	C87.684822,147.787827 87.343163,151.331268 90.286697,153.999939 
	C91.807060,155.378326 95.285568,155.832611 97.325592,155.119720 
	C100.589088,153.979294 101.064507,150.569366 99.943413,147.514633 
	C98.408524,143.332413 95.140030,142.963577 90.711983,144.860641 
z"/>
<path fill="#140F08" opacity="1.000000" stroke="none" 
	d="
M107.890244,187.136902 
	C103.785721,183.230209 102.976311,178.871155 105.105934,174.151810 
	C106.907112,170.160339 110.312889,168.100067 114.673576,168.157028 
	C119.317619,168.217667 122.475372,170.788193 124.180321,174.999359 
	C126.010445,179.519714 124.797691,183.515503 121.411766,186.820221 
	C117.913048,190.235016 113.498962,190.345154 107.890244,187.136902 
M108.774078,177.118546 
	C107.764160,181.241409 109.441803,184.001404 113.410324,184.937073 
	C116.780701,185.731705 119.813454,183.924866 120.065620,180.715790 
	C120.254959,178.306168 118.864281,174.687454 116.971893,173.450027 
	C114.034103,171.529037 110.573891,172.473816 108.774078,177.118546 
z"/>
<path fill="#130E09" opacity="1.000000" stroke="none" 
	d="
M141.867279,185.613708 
	C149.393265,184.926743 154.464722,188.652649 155.008331,194.877182 
	C155.519730,200.732803 151.577545,205.836594 145.925980,206.635788 
	C140.928345,207.342499 136.124969,204.081024 134.569717,198.924942 
	C132.948105,193.548843 135.341599,188.993118 141.867279,185.613708 
M148.808395,191.512390 
	C144.323273,188.742737 140.060806,189.472458 139.286026,193.700256 
	C138.865341,195.995850 139.883789,199.511932 141.561249,200.929520 
	C142.879578,202.043594 146.712311,201.572723 148.522522,200.403656 
	C151.598816,198.416931 151.585861,195.136612 148.808395,191.512390 
z"/>
<path fill="#0F0B08" opacity="1.000000" stroke="none" 
	d="
M88.692719,194.560333 
	C83.459290,198.750961 78.968987,199.158463 74.906921,196.072021 
	C70.878220,193.010941 69.402924,187.703217 71.321617,183.173096 
	C73.211052,178.712067 77.740791,176.188004 82.592026,176.893021 
	C90.540833,178.048187 93.675179,186.605560 88.692719,194.560333 
M76.100540,191.145996 
	C80.284508,194.837555 85.624443,194.170639 86.511879,189.494324 
	C86.923347,187.326080 85.955437,184.040543 84.384552,182.616837 
	C83.079918,181.434418 79.567970,181.425537 77.760803,182.337463 
	C74.569405,183.947876 74.136848,187.182236 76.100540,191.145996 
z"/>
<path fill="#07080C" opacity="1.000000" stroke="none" 
	d="
M252.467529,87.728668 
	C255.504288,78.292641 261.834808,73.587463 269.635345,74.622917 
	C277.532104,75.671143 283.163818,81.935020 283.701141,90.267616 
	C284.229980,98.468185 278.881073,105.826942 271.028381,107.702209 
	C260.334564,110.255974 251.182373,100.644112 252.467529,87.728668 
z"/>
<path fill="#07080C" opacity="1.000000" stroke="none" 
	d="
M312.789490,63.783508 
	C319.378448,58.469559 325.509460,57.700497 331.418365,61.217335 
	C337.259094,64.693588 340.218933,71.436455 339.151215,78.833534 
	C338.195251,85.456100 333.222809,91.002655 326.880554,92.341301 
	C320.300079,93.730225 315.028351,91.330948 311.225739,86.061272 
	C306.944702,80.128578 306.847839,73.702446 310.175781,67.247307 
	C310.775146,66.084694 311.735382,65.108116 312.789490,63.783508 
z"/>
<path fill="#C17031" opacity="1.000000" stroke="none" 
	d="
M101.805641,218.291580 
	C99.457306,214.759323 99.377792,211.357346 102.656219,209.274246 
	C104.360916,208.191101 108.144028,207.911636 109.300911,209.024017 
	C110.950508,210.610092 111.995377,213.967941 111.603973,216.282425 
	C110.910736,220.381638 106.656044,221.157379 101.805641,218.291580 
z"/>
<path fill="#BF6F31" opacity="1.000000" stroke="none" 
	d="
M91.046791,144.636642 
	C95.140030,142.963577 98.408524,143.332413 99.943413,147.514633 
	C101.064507,150.569366 100.589088,153.979294 97.325592,155.119720 
	C95.285568,155.832611 91.807060,155.378326 90.286697,153.999939 
	C87.343163,151.331268 87.684822,147.787827 91.046791,144.636642 
z"/>
<path fill="#C06F30" opacity="1.000000" stroke="none" 
	d="
M108.863602,176.748856 
	C110.573891,172.473816 114.034103,171.529037 116.971893,173.450027 
	C118.864281,174.687454 120.254959,178.306168 120.065620,180.715790 
	C119.813454,183.924866 116.780701,185.731705 113.410324,184.937073 
	C109.441803,184.001404 107.764160,181.241409 108.863602,176.748856 
z"/>
<path fill="#BE6E30" opacity="1.000000" stroke="none" 
	d="
M149.060654,191.813904 
	C151.585861,195.136612 151.598816,198.416931 148.522522,200.403656 
	C146.712311,201.572723 142.879578,202.043594 141.561249,200.929520 
	C139.883789,199.511932 138.865341,195.995850 139.286026,193.700256 
	C140.060806,189.472458 144.323273,188.742737 149.060654,191.813904 
z"/>
<path fill="#C16F30" opacity="1.000000" stroke="none" 
	d="
M75.890083,190.815674 
	C74.136848,187.182236 74.569405,183.947876 77.760803,182.337463 
	C79.567970,181.425537 83.079918,181.434418 84.384552,182.616837 
	C85.955437,184.040543 86.923347,187.326080 86.511879,189.494324 
	C85.624443,194.170639 80.284508,194.837555 75.890083,190.815674 
z"/>
</svg>
